<svg width="1068" height="220" viewBox="0 0 1068 220" fill="none" xmlns="http://www.w3.org/2000/svg">
<path d="M352.985 178.16L316.622 85.9422V178.16H289.929V39.3447H325.109L365.329 142.209L405.754 39.3447H440.934V178.16H414.241V85.1707L377.518 178.16H352.985Z" fill="#52688B"/>
<path d="M511.914 179.909C501.577 179.909 492.525 177.698 484.758 173.223C476.941 168.8 470.923 162.474 466.706 154.399C462.437 146.273 460.328 136.861 460.328 126.163C460.328 115.465 462.54 106.721 466.911 98.698C471.283 90.726 477.352 84.3999 485.067 79.8224C492.782 75.245 501.628 72.9819 511.554 72.9819C519.681 72.9819 527.035 74.4735 533.67 77.508C540.305 80.5425 545.86 84.8113 550.386 90.366C554.912 95.9206 558.1 102.298 560.055 109.602C562.009 116.905 562.318 124.723 561.032 133.106H476.169V116.082H532.642C532.384 108.882 530.276 103.173 526.367 98.9551C522.458 94.7891 517.315 92.6804 510.989 92.6804C505.948 92.6804 501.731 93.9662 498.234 96.5378C494.736 99.1094 492.062 102.864 490.21 107.853C488.359 112.79 487.433 118.911 487.433 126.111C487.433 133.312 488.359 139.175 490.159 144.113C491.959 148.999 494.685 152.753 498.285 155.325C501.885 157.896 506.257 159.182 511.452 159.182C517.366 159.182 522.252 157.742 526.161 154.913C530.019 152.084 532.744 148.124 534.287 143.135H560.981C557.998 154.759 552.289 163.76 543.751 170.189C535.265 176.618 524.67 179.858 512.069 179.858L511.914 179.909Z" fill="#52688B"/>
<path d="M570.287 126.575C570.287 116.392 572.19 107.237 575.996 99.1106C579.801 90.9843 585.15 84.6068 592.042 79.9779C598.934 75.349 606.958 73.0345 616.113 73.0345C622.284 73.0345 627.993 74.3203 633.137 76.8919C638.28 79.4635 642.806 83.2695 646.663 88.3099V39.3979H673.356V178.213H648.823V163.349C644.709 168.647 639.874 172.761 634.422 175.744C628.919 178.727 622.85 180.168 616.164 180.168C607.009 180.168 598.986 177.802 592.094 173.121C585.202 168.441 579.853 162.012 576.047 153.886C572.241 145.759 570.338 136.656 570.338 126.627L570.287 126.575ZM597.957 126.575C597.957 136.245 600.323 143.599 605.106 148.64C609.889 153.68 615.547 156.2 622.13 156.2C626.656 156.2 630.719 155.017 634.422 152.703C638.074 150.388 641.006 146.994 643.217 142.571C645.429 138.148 646.509 132.696 646.509 126.215C646.509 119.735 645.377 114.335 643.114 109.963C640.851 105.591 637.868 102.299 634.217 100.088C630.565 97.8762 626.502 96.7962 622.13 96.7962C615.547 96.7962 609.889 99.2649 605.106 104.254C600.323 109.191 597.957 116.649 597.957 126.575Z" fill="#52688B"/>
<path d="M761.715 178.16H732.347V65.8322H688.63V39.3447H805.586V65.8322H761.715V178.16Z" fill="#52688B"/>
<path d="M870.341 178.162V165.407C866.998 170.19 862.729 173.791 857.586 176.311C852.443 178.831 846.322 180.065 839.225 180.065C828.527 180.065 819.886 177.185 813.303 171.373C806.719 165.561 803.428 157.847 803.428 148.177C803.428 138.508 807.439 130.433 815.411 125.187C823.383 119.89 834.853 117.267 849.819 117.267C852.803 117.267 855.631 117.37 858.306 117.575C861.032 117.781 863.912 118.038 866.998 118.45V112.278C866.998 106.466 865.455 101.991 862.369 98.7512C859.283 95.511 854.911 93.9166 849.202 93.9166C843.493 93.9166 838.813 95.511 835.47 98.7512C832.127 101.991 830.172 106.466 829.658 112.278H805.485C805.999 104.306 808.16 97.3625 811.965 91.4993C815.771 85.636 820.863 81.11 827.241 77.8698C833.618 74.6295 840.922 73.0352 849.202 73.0352C862.729 73.0352 873.273 76.584 880.833 83.6816C888.342 90.7792 892.148 100.603 892.148 113.255V178.214H870.289L870.341 178.162ZM828.784 147.457C828.784 151.726 830.224 155.121 833.155 157.692C836.036 160.264 839.996 161.55 845.036 161.55C851.877 161.55 857.226 159.801 861.186 156.252C865.095 152.703 867.101 147.972 867.101 142.057V134.702C864.015 134.188 861.237 133.828 858.769 133.622C856.3 133.416 853.934 133.314 851.62 133.314C844.162 133.314 838.453 134.496 834.596 136.811C830.738 139.125 828.784 142.674 828.784 147.457Z" fill="#52688B"/>
<path d="M942.447 178.16H915.394V39.3447H942.447V178.16Z" fill="#52688B"/>
<path d="M993.52 178.16H966.621V39.3447H993.52V118.602L1031.22 74.8843H1062.13L1019.39 124.362L1067.12 178.108H1032.92L993.468 130.174V178.108L993.52 178.16Z" fill="#52688B"/>
<path d="M193.133 0.047527H35.185C15.8465 0.047527 0.0568848 15.7857 0.0568848 35.1756V140.509C0.0568848 159.847 15.7951 175.637 35.185 175.637H163.662L213.86 217.502C215.454 218.84 217.46 219.56 219.466 219.56C220.752 219.56 222.038 219.251 223.169 218.737C226.255 217.297 228.21 214.211 228.21 210.765V35.1242C228.21 15.7857 212.471 -0.00390625 193.081 -0.00390625L193.133 0.047527ZM175.44 110.472H152.45C148.901 110.472 145.61 108.724 143.655 105.792L137.329 96.4313L121.694 138.863C120.151 143.08 116.139 145.806 111.716 145.806C111.51 145.806 111.304 145.806 111.099 145.806C106.418 145.549 102.51 142.257 101.378 137.731L86.6171 77.9671L76.7421 103.94C75.1477 108.055 71.2389 110.781 66.8157 110.781H23.1499C17.2866 110.781 12.5034 105.998 12.5034 100.134C12.5034 94.2711 17.2866 89.4879 23.1499 89.4879H59.5124L78.9023 38.6216C80.5481 34.3013 84.8684 31.4725 89.4973 31.7811C94.1262 32.0383 98.035 35.3299 99.1665 39.856L113.825 99.0029L124.677 69.6351C126.065 65.8806 129.409 63.2576 133.369 62.7432C137.329 62.2804 141.238 64.029 143.45 67.3207L158.211 89.1793H175.543C181.406 89.1793 186.19 93.9625 186.19 99.8258C186.19 105.689 181.406 110.472 175.543 110.472H175.44ZM211.186 46.5421C201.311 48.7023 193.647 56.4171 191.539 66.3435C190.973 69.0694 188.453 71.0238 185.521 70.7666C183.052 70.5609 181.046 68.5551 180.532 66.1378C178.372 56.2628 170.657 48.5994 160.731 46.4907C158.005 45.9249 156.05 43.4048 156.308 40.4731C156.513 38.0044 158.519 36.05 160.936 35.4842C170.811 33.3241 178.475 25.6093 180.583 15.6829C181.149 12.957 183.669 11.0026 186.601 11.2597C189.07 11.4654 191.076 13.4713 191.59 15.8886C193.75 25.7636 201.465 33.4269 211.391 35.5357C214.117 36.1014 216.072 38.6216 215.814 41.5532C215.609 44.022 213.603 45.9764 211.186 46.5421Z" fill="#52688B"/>
</svg>
